# Blender v2.79 (sub 0) OBJ File: ''
# www.blender.org
mtllib Star.mtl
o Circle_Circle.001
v -0.227507 1.000041 -0.019876
v -0.435881 1.000041 0.619210
v -1.093532 1.000041 0.480124
v -0.644255 1.000041 0.980124
v -1.093532 1.000041 1.480124
v -0.435881 1.000041 1.341039
v -0.227507 1.000041 1.980124
v -0.019133 1.000041 1.341039
v 0.638518 1.000041 1.480125
v 0.189242 1.000041 0.980125
v 0.638519 1.000041 0.480125
v -0.019132 1.000041 0.619210
v -0.227507 1.000041 -0.214624
v -0.824881 1.000041 -0.054558
v -1.262189 1.000041 0.382750
v -1.422255 1.000041 0.980124
v -1.262189 1.000041 1.577498
v -0.824881 1.000041 2.014806
v -0.227507 1.000041 2.174872
v 0.369867 1.000041 2.014807
v 0.807175 1.000041 1.577499
v 0.967241 1.000041 0.980125
v 0.807176 1.000041 0.382751
v 0.369868 1.000041 -0.054557
v -0.540475 1.000041 -0.187890
v -1.082553 1.000041 0.125078
v -1.395521 1.000041 0.667156
v -1.395521 1.000041 1.293093
v -1.082553 1.000041 1.835170
v -0.540475 1.000041 2.148139
v 0.085461 1.000041 2.148139
v 0.627539 1.000041 1.835171
v 0.940507 1.000041 1.293093
v 0.940508 1.000041 0.667156
v 0.627540 1.000041 0.125079
v 0.085462 1.000041 -0.187890
v -0.227507 0.910744 -0.574893
v -1.005015 0.910744 -0.366560
v -1.574191 0.910744 0.202616
v -1.782524 0.910744 0.980124
v -1.574191 0.910744 1.757633
v -1.005015 0.910744 2.326809
v -0.227507 0.910744 2.535141
v 0.550002 0.910744 2.326809
v 1.119177 0.910744 1.757633
v 1.327510 0.910744 0.980125
v 1.119178 0.910744 0.202616
v 0.550003 0.910744 -0.366560
v -0.634849 0.910744 -0.540098
v -1.340387 0.910744 -0.132756
v -1.747729 0.910744 0.572782
v -1.747729 0.910744 1.387467
v -1.340387 0.910744 2.093004
v -0.634849 0.910744 2.500347
v 0.179835 0.910744 2.500347
v 0.885373 0.910744 2.093004
v 1.292715 0.910744 1.387467
v 1.292716 0.910744 0.572783
v 0.885374 0.910744 -0.132755
v 0.179836 0.910744 -0.540098
v -0.227507 1.047482 -0.019876
v -0.435881 1.047482 0.619210
v -1.093532 1.047482 0.480124
v -0.644255 1.047482 0.980124
v -1.093532 1.047482 1.480124
v -0.435881 1.047482 1.341039
v -0.227507 1.047482 1.980124
v -0.019133 1.047482 1.341039
v 0.638518 1.047482 1.480125
v 0.189242 1.047482 0.980125
v 0.638519 1.047482 0.480125
v -0.019132 1.047482 0.619210
vt 0.299679 0.107222
vt 0.235599 0.123135
vt 0.179289 0.170047
vt 0.202344 0.217767
vt 0.096797 0.311315
vt 0.242617 0.409959
vt 0.462168 0.755552
vt 0.439113 0.707833
vt 0.341778 0.818377
vt 0.405858 0.802464
vt 0.232859 0.733255
vt 0.215747 0.785925
vt 0.276756 0.818377
vt 0.114474 0.488222
vt 0.117846 0.666892
vt 0.159436 0.739013
vt 0.074307 0.493173
vt 0.085335 0.585638
vt 0.074307 0.399349
vt 0.313386 0.338768
vt 0.408598 0.192345
vt 0.523611 0.258707
vt 0.482021 0.186586
vt 0.425710 0.139674
vt 0.249959 0.533991
vt 0.391497 0.391609
vt 0.364701 0.107222
vt 0.526982 0.437378
vt 0.567150 0.432427
vt 0.556122 0.339961
vt 0.328071 0.586831
vt 0.398840 0.515640
vt 0.544660 0.614284
vt 0.661098 0.793843
vt 0.670918 0.793843
vt 0.670918 0.597402
vt 0.661098 0.597402
vt 0.567150 0.526251
vt 0.512149 0.695539
vt 0.129308 0.230061
vt 0.700379 0.597402
vt 0.690559 0.597402
vt 0.690559 0.731601
vt 0.700379 0.731601
vt 0.680739 0.793843
vt 0.670918 0.793843
vt 0.670918 0.990284
vt 0.680739 0.990284
vt 0.680739 0.597402
vt 0.670918 0.793843
vt 0.680739 0.793843
vt 0.651277 0.597402
vt 0.641457 0.597402
vt 0.641457 0.793843
vt 0.651277 0.793843
vt 0.661098 0.597402
vt 0.651277 0.597402
vt 0.651277 0.793843
vt 0.661098 0.793843
vt 0.029271 0.265636
vt 0.000000 0.380215
vt 0.680739 0.865801
vt 0.690559 0.865801
vt 0.690559 0.731601
vt 0.680739 0.731601
vt 0.670918 0.793843
vt 0.661098 0.793843
vt 0.661098 0.990284
vt 0.670918 0.990284
vt 0.651277 0.793843
vt 0.641457 0.793843
vt 0.641457 0.928042
vt 0.651277 0.928042
vt 0.690559 0.865801
vt 0.680739 0.865801
vt 0.680739 1.000000
vt 0.690559 1.000000
vt 0.627104 0.302920
vt 0.584789 0.197164
vt 0.000000 0.502332
vt 0.530658 0.103296
vt 0.014353 0.622679
vt 0.457367 0.042237
vt 0.056668 0.728435
vt 0.377961 0.000000
vt 0.110799 0.822304
vt 0.293332 0.000000
vt 0.184090 0.883362
vt 0.209929 0.020711
vt 0.263496 0.925599
vt 0.071586 0.159880
vt 0.136638 0.081769
vt 0.348125 0.925599
vt 0.431528 0.904888
vt 0.504819 0.843830
vt 0.569871 0.765720
vt 0.612186 0.659964
vt 0.641457 0.545384
vt 0.641457 0.423268
vt 0.863863 0.190895
vt 0.906998 0.298701
vt 1.000000 0.149350
vt 0.777594 0.190895
vt 0.820728 0.000000
vt 0.863863 0.406507
vt 1.000000 0.448051
vt 0.734459 0.298701
vt 0.777594 0.406507
vt 0.820728 0.597402
vt 0.641457 0.448051
vt 0.641457 0.149351
vt 0.690559 0.597402
vt 0.680739 0.597402
vt 0.680739 0.731601
vt 0.690559 0.731601
vt 0.661098 0.793843
vt 0.651277 0.793843
vt 0.651277 0.928042
vt 0.661098 0.928042
vn 0.0000 1.0000 0.0000
vn -0.2069 0.0000 -0.9784
vn -0.7438 0.0000 -0.6684
vn 0.9507 0.0000 0.3100
vn 0.7438 0.0000 0.6684
vn -0.7438 0.0000 0.6684
vn -0.9507 0.0000 0.3100
vn -0.1381 0.9704 -0.1980
vn 0.7438 0.0000 -0.6684
vn 0.2069 0.0000 -0.9784
vn 0.9507 0.0000 -0.3100
vn 0.2069 0.0000 0.9784
vn 0.2405 0.9704 0.0205
vn -0.1980 0.9704 -0.1381
vn 0.2405 0.9704 -0.0205
vn -0.2186 0.9704 -0.1025
vn 0.2186 0.9704 -0.1025
vn -0.2405 0.9704 -0.0205
vn 0.1980 0.9704 -0.1381
vn -0.2405 0.9704 0.0205
vn 0.1381 0.9704 -0.1980
vn -0.2186 0.9704 0.1025
vn 0.1025 0.9704 -0.2186
vn -0.1980 0.9704 0.1381
vn -0.1025 0.9704 -0.2186
vn 0.0205 0.9704 -0.2405
vn -0.1381 0.9704 0.1980
vn -0.1025 0.9704 0.2186
vn -0.0205 0.9704 0.2405
vn 0.0205 0.9704 0.2405
vn 0.1025 0.9704 0.2186
vn 0.1381 0.9704 0.1980
vn -0.0205 0.9704 -0.2405
vn 0.1980 0.9704 0.1381
vn 0.2186 0.9704 0.1025
vn -0.9507 0.0000 -0.3100
vn -0.2069 0.0000 0.9784
usemtl Material.001
s off
f 24/1/1 36/2/1 13/3/1 1/4/1
f 1/4/1 14/5/1 2/6/1
f 19/7/1 7/8/1 18/9/1 30/10/1
f 18/9/1 5/11/1 17/12/1 29/13/1
f 14/5/1 3/14/1 2/6/1
f 5/11/1 16/15/1 28/16/1 17/12/1
f 16/15/1 3/14/1 15/17/1 27/18/1
f 15/17/1 3/14/1 14/5/1 26/19/1
f 12/20/1 11/21/1 24/1/1
f 11/21/1 22/22/1 34/23/1 23/24/1
f 16/15/1 4/25/1 3/14/1
f 10/26/1 22/22/1 11/21/1
f 4/25/1 16/15/1 5/11/1
f 24/1/1 11/21/1 23/24/1 35/27/1
f 9/28/1 22/22/1 10/26/1
f 9/28/1 21/29/1 33/30/1 22/22/1
f 7/8/1 6/31/1 18/9/1
f 9/28/1 8/32/1 20/33/1
f 12/34/2 72/35/2 71/36/2 11/37/2
f 21/29/1 9/28/1 20/33/1 32/38/1
f 18/9/1 6/31/1 5/11/1
f 20/33/1 8/32/1 7/8/1
f 20/33/1 7/8/1 19/7/1 31/39/1
f 12/20/1 24/1/1 1/4/1
f 1/4/1 13/3/1 25/40/1 14/5/1
f 5/41/3 65/42/3 64/43/3 4/44/3
f 8/45/4 68/46/4 67/47/4 7/48/4
f 11/49/5 71/36/5 70/50/5 10/51/5
f 4/52/6 64/53/6 63/54/6 3/55/6
f 7/56/7 67/57/7 66/58/7 6/59/7
f 14/5/8 38/60/8 50/61/8 26/19/8
f 10/62/9 70/63/9 69/64/9 9/65/9
f 3/66/10 63/67/10 62/68/10 2/69/10
f 1/70/11 61/71/11 72/72/11 12/73/11
f 6/74/12 66/75/12 65/76/12 5/77/12
f 33/30/13 57/78/13 46/79/13 22/22/13
f 26/19/14 50/61/14 39/80/14 15/17/14
f 22/22/15 46/79/15 58/81/15 34/23/15
f 15/17/16 39/80/16 51/82/16 27/18/16
f 34/23/17 58/81/17 47/83/17 23/24/17
f 27/18/18 51/82/18 40/84/18 16/15/18
f 23/24/19 47/83/19 59/85/19 35/27/19
f 16/15/20 40/84/20 52/86/20 28/16/20
f 35/27/21 59/85/21 48/87/21 24/1/21
f 28/16/22 52/86/22 41/88/22 17/12/22
f 24/1/23 48/87/23 60/89/23 36/2/23
f 17/12/24 41/88/24 53/90/24 29/13/24
f 25/40/25 49/91/25 38/60/25 14/5/25
f 36/2/26 60/89/26 37/92/26 13/3/26
f 29/13/27 53/90/27 42/93/27 18/9/27
f 18/9/28 42/93/28 54/94/28 30/10/28
f 30/10/29 54/94/29 43/95/29 19/7/29
f 19/7/30 43/95/30 55/96/30 31/39/30
f 31/39/31 55/96/31 44/97/31 20/33/31
f 20/33/32 44/97/32 56/98/32 32/38/32
f 13/3/33 37/92/33 49/91/33 25/40/33
f 32/38/34 56/98/34 45/99/34 21/29/34
f 21/29/35 45/99/35 57/78/35 33/30/35
f 62/100/1 72/101/1 61/102/1
f 64/103/1 62/100/1 63/104/1
f 72/101/1 70/105/1 71/106/1
f 64/103/1 72/101/1 62/100/1
f 64/103/1 70/105/1 72/101/1
f 70/105/1 64/103/1 66/107/1
f 66/107/1 68/108/1 70/105/1
f 68/108/1 69/109/1 70/105/1
f 67/110/1 68/108/1 66/107/1
f 66/107/1 64/103/1 65/111/1
f 2/112/36 62/113/36 61/114/36 1/115/36
f 9/116/37 69/117/37 68/118/37 8/119/37
